inDegrees=yes
name=ik_S54_A06_T02
DataType=double
version=3
OpenSimVersion=4.3-2021-08-27-4bc7ad9
endheader
time	pelvis_tilt	pelvis_list	pelvis_rotation	pelvis_tx	pelvis_ty	pelvis_tz	hip_flexion_r	hip_adduction_r	hip_rotation_r	knee_angle_r	knee_angle_r_beta	ankle_angle_r	subtalar_angle_r	mtp_angle_r	hip_flexion_l	hip_adduction_l	hip_rotation_l	knee_angle_l	knee_angle_l_beta	ankle_angle_l	subtalar_angle_l	mtp_angle_l	lumbar_extension	lumbar_bending	lumbar_rotation	arm_flex_r	arm_add_r	arm_rot_r	elbow_flex_r	pro_sup_r	wrist_flex_r	wrist_dev_r	arm_flex_l	arm_add_l	arm_rot_l	elbow_flex_l	pro_sup_l	wrist_flex_l	wrist_dev_l
0	0	0	0	0	0.9399999999999999	0	0	0	0	0	0	0	0	0	0	0	0	0	0	0	0	0	0	0	0	0	0	0	0	89.99999999963507	0	0	0	0	0	0	89.99999999869995	0	0
0.02	-7.045525548183883	-0.01420081736224227	19.29715216862145	0	0.9399999999999999	0	3.952278601000333	-1.848616088300302	-1.331303711069116	6.07698023143288	0.1060633136171108	0	0	0	3.952278601000333	-1.848616088300302	-1.331303711069116	6.07698023143288	0.1060633136171108	0	0	0	-2.554260233711725	-3.998905807445093	1.074778310837433	33.04505883347319	2.315411005675696	-1.909694498567235	45.48634908485629	142.0277657097991	0	0	29.95358002662306	-16.10142530061709	-8.323061794336692	46.15376322330575	148.1575817529352	0	0
0.04	-7.034643032270646	-0.01378204410608841	19.31383530299909	0	0.9399999999999999	0	3.969821330596631	-1.857530346111086	-1.337317706662424	6.099478269779596	0.1064559784615009	0	0	0	3.969821330596631	-1.857530346111086	-1.337317706662424	6.099478269779596	0.1064559784615009	0	0	0	-2.544605422843287	-4.000511088310861	1.067075402791924	33.16446958480716	2.295525169988439	-1.864187476104554	45.34365506963048	141.9962372543351	0	0	29.97240924062546	-16.09884656737078	-8.345746759194967	46.09464056614372	148.2067781294273	0	0
0.06	-6.107811089856249	-0.6128296145157751	19.13715685082727	0	0.9399999999999999	0	28.83973463805306	-13.45618449663263	-9.450041920908987	39.37794708358464	0.6872748292846507	0	0	0	28.83973463805306	-13.45618449663263	-9.450041920908987	39.37794708358464	0.6872748292846507	0	0	0	-3.182181999368895	-3.164282995894673	1.295971094410987	33.19127501722797	2.316405486050613	-1.836477518911529	45.33564278956944	141.9240736017955	0	0	30.00457387242794	-16.12207393446508	-8.372543339325862	46.01102361274869	148.2770872986167	0	0
0.08	-6.090555491918604	-0.6244276783955471	19.16918074581801	0	0.9399999999999999	0	28.8406753103127	-13.45552312642101	-9.450109460640046	39.37857624795492	0.6872858102744482	0	0	0	28.8406753103127	-13.45552312642101	-9.450109460640046	39.37857624795492	0.6872858102744482	0	0	0	-3.169695996046239	-3.181009333066828	1.299566861005253	33.16990024637033	2.306254850394824	-1.840931986438829	45.29865075146329	141.9270437637838	0	0	30.07270231819575	-16.10367796430112	-8.41063740418206	46.01033773670977	148.286746665638	0	0
0.1	-6.095063287467964	-0.628926718033239	19.19085388953475	0	0.9399999999999999	0	28.85172488271079	-13.44661129142256	-9.450968694853769	39.3857094729657	0.687410308537172	0	0	0	28.85172488271079	-13.44661129142256	-9.450968694853769	39.3857094729657	0.687410308537172	0	0	0	-3.176628347836667	-3.181999415776895	1.303862046498313	33.19259439176825	2.289727615302833	-1.804518560471183	45.23932180493392	141.9088057593533	0	0	30.08849685828313	-16.09073884451302	-8.398627248497112	45.98242090152182	148.2775158588466	0	0
0.12	-6.094596031823055	-0.6371153447366319	19.21239870757604	0	0.9399999999999999	0	28.87762756057554	-13.4271805442789	-9.452904013836868	39.40257431323305	0.6877046555276602	0	0	0	28.87762756057554	-13.4271805442789	-9.452904013836868	39.40257431323305	0.6877046555276602	0	0	0	-3.181817714879995	-3.185217595054811	1.306668485067904	33.20258592920369	2.272222754539106	-1.790676991543068	45.24173557842618	141.8600391244988	0	0	30.1123354069627	-16.06798679301052	-8.413701686070841	45.95759851543301	148.1846703137405	0	0
0.14	-6.094290427389106	-0.6483025550857802	19.24126497136951	0	0.9399999999999999	0	28.9098276904483	-13.40306162579822	-9.455308211404812	39.42351040999486	0.6880700593486699	0	0	0	28.9098276904483	-13.40306162579822	-9.455308211404812	39.42351040999486	0.6880700593486699	0	0	0	-3.188861799898246	-3.190009882720394	1.30836434634265	33.20536360930344	2.270290886663839	-1.774011113065081	45.26043168103024	141.8290092823952	0	0	30.13017676706427	-16.032718919744	-8.420757322379139	45.91153708107618	148.0152437578334	0	0
0.16	-6.098098078963083	-0.6512271627006627	19.27122018155303	0	0.9399999999999999	0	28.94551291754871	-13.37446175505936	-9.458076479796894	39.44630812429506	0.6884679545251373	0	0	0	28.94551291754871	-13.37446175505936	-9.458076479796894	39.44630812429506	0.6884679545251373	0	0	0	-3.197498588345833	-3.184426588008813	1.297808265071233	33.18445682688002	2.264380904230749	-1.766326795197838	45.25842122629937	141.9026535433294	0	0	30.15220537051022	-16.01686339495234	-8.410243863781895	45.75884241550361	147.6795775213215	0	0
0.18	-6.103095789812105	-0.6639532724219483	19.29679516738849	0	0.9399999999999999	0	28.97696600691178	-13.3515966580391	-9.46038820349002	39.46687239676823	0.6888268687880714	0	0	0	28.97696600691178	-13.3515966580391	-9.46038820349002	39.46687239676823	0.6888268687880714	0	0	0	-3.210012610550954	-3.189013295172582	1.299566619464741	33.21426557820944	2.270936091595626	-1.786118670212264	45.30177020771042	141.8503897030607	0	0	30.1376400680835	-15.99969139564451	-8.406834404038852	45.76895577310992	147.5385430727719	0	0
0.2	-6.106611849797051	-0.6690696534849762	19.31205811469871	0	0.9399999999999999	0	28.97882198443382	-13.34854957943007	-9.460619043198218	39.46782973623712	0.6888435775138629	0	0	0	28.97882198443382	-13.34854957943007	-9.460619043198218	39.46782973623712	0.6888435775138629	0	0	0	-3.215130295799702	-3.192594827045576	1.302378053201851	33.19815027778451	2.260128466787	-1.792683882063238	45.29487007257282	141.8867249058476	0	0	30.15596175383014	-16.0107976120754	-8.41947793391307	45.75353347384677	147.5489203484858	0	0
0.22	-6.116838120793783	-0.6720622351739112	19.32420747807996	0	0.9399999999999999	0	28.97720994213614	-13.34717829283286	-9.460639322554492	39.46633017670222	0.6888174052626492	0	0	0	28.97720994213614	-13.34717829283286	-9.460639322554492	39.46633017670222	0.6888174052626492	0	0	0	-3.225462869106728	-3.19267248580018	1.305857163627019	33.2131968269906	2.25987499137806	-1.806714955399912	45.2984912339729	141.9136125296315	0	0	30.1572010334682	-16.01542009735439	-8.424008079619767	45.75155911036974	147.5640550795636	0	0
0.24	-6.123462619219259	-0.6748816527236767	19.33389980163949	0	0.9399999999999999	0	28.99490446138281	-13.33402766017213	-9.461951663744561	39.47786607139146	0.6890187446071397	0	0	0	28.99490446138281	-13.33402766017213	-9.461951663744561	39.47786607139146	0.6890187446071397	0	0	0	-3.234682582882266	-3.189852813320198	1.306328399391817	33.22105460056602	2.25022776142381	-1.834957790437177	45.33514771640879	141.8696061997358	0	0	30.1570230212835	-16.01740229049961	-8.434946566177977	45.78357994854078	147.5039165624876	0	0
0.26	-6.130564325567215	-0.6744773312879313	19.3404497054689	0	0.9399999999999999	0	28.99301741576689	-13.33239967793721	-9.461969751946912	39.47614290278717	0.688988669641428	0	0	0	28.99301741576689	-13.33239967793721	-9.461969751946912	39.47614290278717	0.688988669641428	0	0	0	-3.240920030609117	-3.187613816199098	1.306624801959424	33.21554058740844	2.255250374792078	-1.844807225551117	45.33786280324918	141.884685365834	0	0	30.15959383697176	-16.02021924095695	-8.443642918993149	45.78423950753812	147.5068521360032	0	0
0.28	-6.136584863476285	-0.6799657355642791	19.35181873172399	0	0.9399999999999999	0	28.98272274198171	-13.33690230844793	-9.461371763899109	39.46894291515225	0.6888630061510957	0	0	0	28.98272274198171	-13.33690230844793	-9.461371763899109	39.46894291515225	0.6888630061510957	0	0	0	-3.247133089002026	-3.192874608558466	1.306773541526366	33.22085975730589	2.270179681136822	-1.840437428555858	45.3371818094658	141.9397818388839	0	0	30.14821554601546	-16.0157305262356	-8.450551407202816	45.77455748816901	147.5559695671338	0	0
0.3	-6.142380711511202	-0.6810916724187488	19.3478822847688	0	0.9399999999999999	0	28.98499085529591	-13.32773080717826	-9.461963189646804	39.46888301116401	0.6888619606292659	0	0	0	28.98499085529591	-13.32773080717826	-9.461963189646804	39.46888301116401	0.6888619606292659	0	0	0	-3.252905394425069	-3.192220035636769	1.307621728028782	33.21189030335212	2.263658385238597	-1.827703088357836	45.38480090218015	141.9305330898151	0	0	30.12878627571562	-16.01445547332451	-8.442766364732607	45.82009870962484	147.5035659145674	0	0
0.32	-6.142532169575931	-0.6821212359706177	19.35522560142936	0	0.9399999999999999	0	28.98916314342022	-13.32423137990952	-9.462292686607036	39.47159884236683	0.6889093608256834	0	0	0	28.98916314342022	-13.32423137990952	-9.462292686607036	39.47159884236683	0.6889093608256834	0	0	0	-3.253874540344019	-3.192340429425118	1.307259991761104	33.21911375289859	2.255238090745385	-1.824644100653831	45.40122913157231	141.940229497737	0	-1.914226718997373e-50	30.10273691547692	-16.0126197441586	-8.444425956764253	45.82541087451829	147.5186165019317	0	-1.914226718997373e-50
0.34	-6.154851947737235	-0.6811033821860784	19.34471999775679	0	0.9399999999999999	0	29.0158915754907	-13.30592370972464	-9.464194172323856	39.48926694058169	0.6892177273120984	0	0	0	29.0158915754907	-13.30592370972464	-9.464194172323856	39.48926694058169	0.6892177273120984	0	0	0	-3.268358426112328	-3.181975340532281	1.304903791217984	33.20595590638437	2.248031039760354	-1.794773869809689	45.45935087876462	141.884937015381	0	0	30.10606759337627	-16.01495321955815	-8.430744631506665	45.87568441963123	147.4391947884837	0	0
0.36	-6.156783254885589	-0.6863281185984431	19.33602607972692	0	0.9399999999999999	0	29.00716826724792	-13.31057935529897	-9.463640695614799	39.48335240302033	0.6891144991579199	5.38806921148701e-36	0	0	29.00716826724792	-13.31057935529897	-9.463640695614799	39.48335240302033	0.6891144991579199	5.38806921148701e-36	0	0	-3.270874458076404	-3.187920499767394	1.304023143249117	33.19778167370334	2.255838784805992	-1.782083969384466	45.46012716141789	141.9474240177197	0	0	30.07724310161599	-16.00637602083361	-8.424063453279322	45.874782418974	147.4992077893319	0	0
0.3800000000000001	-6.15131506300613	-0.6814494706040396	19.32368616521263	0	0.9399999999999999	0	29.02524721969596	-13.30276525301812	-9.464673528275116	39.49633574978076	0.6893411013068175	0	0	0	29.02524721969596	-13.30276525301812	-9.464673528275116	39.49633574978076	0.6893411013068175	0	0	0	-3.26641211498243	-3.181739090780933	1.311301172368234	33.17135672755865	2.250253754457496	-1.747429643333191	45.5159858427299	141.9878765832621	0	0	30.047968120072	-15.9931119952977	-8.394239552912518	45.92261818214558	147.5062273990792	0	0
0.4000000000000001	-6.157994335311544	-0.6877293661840329	19.31590406838616	0	0.9399999999999999	0	29.0443208153486	-13.28891160368751	-9.466076513143507	39.5088082548961	0.6895587875870519	0	0	0	29.0443208153486	-13.28891160368751	-9.466076513143507	39.5088082548961	0.6895587875870519	0	0	0	-3.277039232529219	-3.181807417854272	1.310880887687986	33.16675762159624	2.235579340782627	-1.739580729296341	45.55173493103172	141.9518066194971	0	0	30.05454392956291	-16.00144747054202	-8.39476314523192	45.95796521553634	147.4530406044827	0	0
